<?xml version="1.0" encoding="UTF-8" standalone="no"?>
<!DOCTYPE svg PUBLIC "-//W3C//DTD SVG 1.1//EN"
 "http://www.w3.org/Graphics/SVG/1.1/DTD/svg11.dtd">
<!-- Generated by graphviz version 13.1.0 (20250701.0955)
 -->
<!-- Title: interface/driver_hmc5883l_interface.h Pages: 1 -->
<svg width="675pt" height="176pt"
 viewBox="0.00 0.00 675.00 176.00" xmlns="http://www.w3.org/2000/svg" xmlns:xlink="http://www.w3.org/1999/xlink">
<g id="graph0" class="graph" transform="scale(1 1) rotate(0) translate(4 172)">
<title>interface/driver_hmc5883l_interface.h</title>
<!-- Node1 -->
<g id="Node000001" class="node">
<title>Node1</title>
<g id="a_Node000001"><a xlink:title="driver hmc5883l interface header file">
<polygon fill="#999999" stroke="#666666" points="417.38,-168 289.62,-168 289.62,-136 417.38,-136 417.38,-168"/>
<text xml:space="preserve" text-anchor="start" x="297.62" y="-154.5" font-family="Helvetica,sans-Serif" font-size="10.00">interface/driver_hmc5883l</text>
<text xml:space="preserve" text-anchor="middle" x="353.5" y="-142.5" font-family="Helvetica,sans-Serif" font-size="10.00">_interface.h</text>
</a>
</g>
</g>
<!-- Node2 -->
<g id="Node000002" class="node">
<title>Node2</title>
<g id="a_Node000002"><a xlink:href="driver__hmc5883l__basic_8h.html" target="_top" xlink:title="driver hmc5883l basic header file">
<polygon fill="white" stroke="#666666" points="127,-100 0,-100 0,-68 127,-68 127,-100"/>
<text xml:space="preserve" text-anchor="start" x="8" y="-86.5" font-family="Helvetica,sans-Serif" font-size="10.00">example/driver_hmc5883l</text>
<text xml:space="preserve" text-anchor="middle" x="63.5" y="-74.5" font-family="Helvetica,sans-Serif" font-size="10.00">_basic.h</text>
</a>
</g>
</g>
<!-- Node1&#45;&gt;Node2 -->
<g id="edge1_Node000001_Node000002" class="edge">
<title>Node1&#45;&gt;Node2</title>
<g id="a_edge1_Node000001_Node000002"><a xlink:title=" ">
<path fill="none" stroke="#63b8ff" d="M278.13,-133.85C231.26,-123.18 171.67,-109.62 127.18,-99.49"/>
<polygon fill="#63b8ff" stroke="#63b8ff" points="277.14,-137.21 287.66,-136.02 278.69,-130.38 277.14,-137.21"/>
</a>
</g>
</g>
<!-- Node4 -->
<g id="Node000004" class="node">
<title>Node4</title>
<g id="a_Node000004"><a xlink:href="driver__hmc5883l__shot_8h.html" target="_top" xlink:title="driver hmc5883l shot header file">
<polygon fill="white" stroke="#666666" points="272,-100 145,-100 145,-68 272,-68 272,-100"/>
<text xml:space="preserve" text-anchor="start" x="153" y="-86.5" font-family="Helvetica,sans-Serif" font-size="10.00">example/driver_hmc5883l</text>
<text xml:space="preserve" text-anchor="middle" x="208.5" y="-74.5" font-family="Helvetica,sans-Serif" font-size="10.00">_shot.h</text>
</a>
</g>
</g>
<!-- Node1&#45;&gt;Node4 -->
<g id="edge3_Node000001_Node000004" class="edge">
<title>Node1&#45;&gt;Node4</title>
<g id="a_edge3_Node000001_Node000004"><a xlink:title=" ">
<path fill="none" stroke="#63b8ff" d="M309.03,-130.76C287.63,-121.02 262.38,-109.52 242.53,-100.49"/>
<polygon fill="#63b8ff" stroke="#63b8ff" points="307.57,-133.94 318.13,-134.9 310.47,-127.57 307.57,-133.94"/>
</a>
</g>
</g>
<!-- Node6 -->
<g id="Node000006" class="node">
<title>Node6</title>
<g id="a_Node000006"><a xlink:href="driver__hmc5883l__interface__template_8c.html" target="_top" xlink:title="driver hmc5883l interface template source file">
<polygon fill="white" stroke="#666666" points="417.38,-100 289.62,-100 289.62,-68 417.38,-68 417.38,-100"/>
<text xml:space="preserve" text-anchor="start" x="297.62" y="-86.5" font-family="Helvetica,sans-Serif" font-size="10.00">interface/driver_hmc5883l</text>
<text xml:space="preserve" text-anchor="middle" x="353.5" y="-74.5" font-family="Helvetica,sans-Serif" font-size="10.00">_interface_template.c</text>
</a>
</g>
</g>
<!-- Node1&#45;&gt;Node6 -->
<g id="edge5_Node000001_Node000006" class="edge">
<title>Node1&#45;&gt;Node6</title>
<g id="a_edge5_Node000001_Node000006"><a xlink:title=" ">
<path fill="none" stroke="#63b8ff" d="M353.5,-124.31C353.5,-116.12 353.5,-107.38 353.5,-100.22"/>
<polygon fill="#63b8ff" stroke="#63b8ff" points="350,-124.18 353.5,-134.18 357,-124.18 350,-124.18"/>
</a>
</g>
</g>
<!-- Node7 -->
<g id="Node000007" class="node">
<title>Node7</title>
<g id="a_Node000007"><a xlink:href="driver__hmc5883l__read__test_8h.html" target="_top" xlink:title="driver hmc5883l read test header file">
<polygon fill="white" stroke="#666666" points="541.88,-100 435.12,-100 435.12,-68 541.88,-68 541.88,-100"/>
<text xml:space="preserve" text-anchor="start" x="443.12" y="-86.5" font-family="Helvetica,sans-Serif" font-size="10.00">test/driver_hmc5883l</text>
<text xml:space="preserve" text-anchor="middle" x="488.5" y="-74.5" font-family="Helvetica,sans-Serif" font-size="10.00">_read_test.h</text>
</a>
</g>
</g>
<!-- Node1&#45;&gt;Node7 -->
<g id="edge6_Node000001_Node000007" class="edge">
<title>Node1&#45;&gt;Node7</title>
<g id="a_edge6_Node000001_Node000007"><a xlink:title=" ">
<path fill="none" stroke="#63b8ff" d="M395.49,-130.47C415.37,-120.75 438.72,-109.34 457.05,-100.38"/>
<polygon fill="#63b8ff" stroke="#63b8ff" points="393.96,-127.32 386.51,-134.86 397.03,-133.61 393.96,-127.32"/>
</a>
</g>
</g>
<!-- Node9 -->
<g id="Node000009" class="node">
<title>Node9</title>
<g id="a_Node000009"><a xlink:href="driver__hmc5883l__register__test_8h.html" target="_top" xlink:title="driver hmc5883l register test header file">
<polygon fill="white" stroke="#666666" points="666.88,-100 560.12,-100 560.12,-68 666.88,-68 666.88,-100"/>
<text xml:space="preserve" text-anchor="start" x="568.12" y="-86.5" font-family="Helvetica,sans-Serif" font-size="10.00">test/driver_hmc5883l</text>
<text xml:space="preserve" text-anchor="middle" x="613.5" y="-74.5" font-family="Helvetica,sans-Serif" font-size="10.00">_register_test.h</text>
</a>
</g>
</g>
<!-- Node1&#45;&gt;Node9 -->
<g id="edge8_Node000001_Node000009" class="edge">
<title>Node1&#45;&gt;Node9</title>
<g id="a_edge8_Node000001_Node000009"><a xlink:title=" ">
<path fill="none" stroke="#63b8ff" d="M425.6,-132.7C468.17,-121.89 521.14,-108.45 559.98,-98.59"/>
<polygon fill="#63b8ff" stroke="#63b8ff" points="424.76,-129.3 415.93,-135.15 426.48,-136.09 424.76,-129.3"/>
</a>
</g>
</g>
<!-- Node3 -->
<g id="Node000003" class="node">
<title>Node3</title>
<g id="a_Node000003"><a xlink:href="driver__hmc5883l__basic_8c.html" target="_top" xlink:title="driver hmc5883l basic source file">
<polygon fill="white" stroke="#666666" points="127,-32 0,-32 0,0 127,0 127,-32"/>
<text xml:space="preserve" text-anchor="start" x="8" y="-18.5" font-family="Helvetica,sans-Serif" font-size="10.00">example/driver_hmc5883l</text>
<text xml:space="preserve" text-anchor="middle" x="63.5" y="-6.5" font-family="Helvetica,sans-Serif" font-size="10.00">_basic.c</text>
</a>
</g>
</g>
<!-- Node2&#45;&gt;Node3 -->
<g id="edge2_Node000002_Node000003" class="edge">
<title>Node2&#45;&gt;Node3</title>
<g id="a_edge2_Node000002_Node000003"><a xlink:title=" ">
<path fill="none" stroke="#63b8ff" d="M63.5,-56.31C63.5,-48.12 63.5,-39.38 63.5,-32.22"/>
<polygon fill="#63b8ff" stroke="#63b8ff" points="60,-56.18 63.5,-66.18 67,-56.18 60,-56.18"/>
</a>
</g>
</g>
<!-- Node5 -->
<g id="Node000005" class="node">
<title>Node5</title>
<g id="a_Node000005"><a xlink:href="driver__hmc5883l__shot_8c.html" target="_top" xlink:title="driver hmc5883l shot source file">
<polygon fill="white" stroke="#666666" points="272,-32 145,-32 145,0 272,0 272,-32"/>
<text xml:space="preserve" text-anchor="start" x="153" y="-18.5" font-family="Helvetica,sans-Serif" font-size="10.00">example/driver_hmc5883l</text>
<text xml:space="preserve" text-anchor="middle" x="208.5" y="-6.5" font-family="Helvetica,sans-Serif" font-size="10.00">_shot.c</text>
</a>
</g>
</g>
<!-- Node4&#45;&gt;Node5 -->
<g id="edge4_Node000004_Node000005" class="edge">
<title>Node4&#45;&gt;Node5</title>
<g id="a_edge4_Node000004_Node000005"><a xlink:title=" ">
<path fill="none" stroke="#63b8ff" d="M208.5,-56.31C208.5,-48.12 208.5,-39.38 208.5,-32.22"/>
<polygon fill="#63b8ff" stroke="#63b8ff" points="205,-56.18 208.5,-66.18 212,-56.18 205,-56.18"/>
</a>
</g>
</g>
<!-- Node8 -->
<g id="Node000008" class="node">
<title>Node8</title>
<g id="a_Node000008"><a xlink:href="driver__hmc5883l__read__test_8c.html" target="_top" xlink:title="driver hmc5883l read test source file">
<polygon fill="white" stroke="#666666" points="541.88,-32 435.12,-32 435.12,0 541.88,0 541.88,-32"/>
<text xml:space="preserve" text-anchor="start" x="443.12" y="-18.5" font-family="Helvetica,sans-Serif" font-size="10.00">test/driver_hmc5883l</text>
<text xml:space="preserve" text-anchor="middle" x="488.5" y="-6.5" font-family="Helvetica,sans-Serif" font-size="10.00">_read_test.c</text>
</a>
</g>
</g>
<!-- Node7&#45;&gt;Node8 -->
<g id="edge7_Node000007_Node000008" class="edge">
<title>Node7&#45;&gt;Node8</title>
<g id="a_edge7_Node000007_Node000008"><a xlink:title=" ">
<path fill="none" stroke="#63b8ff" d="M488.5,-56.31C488.5,-48.12 488.5,-39.38 488.5,-32.22"/>
<polygon fill="#63b8ff" stroke="#63b8ff" points="485,-56.18 488.5,-66.18 492,-56.18 485,-56.18"/>
</a>
</g>
</g>
<!-- Node10 -->
<g id="Node000010" class="node">
<title>Node10</title>
<g id="a_Node000010"><a xlink:href="driver__hmc5883l__register__test_8c.html" target="_top" xlink:title="driver hmc5883l register test source file">
<polygon fill="white" stroke="#666666" points="666.88,-32 560.12,-32 560.12,0 666.88,0 666.88,-32"/>
<text xml:space="preserve" text-anchor="start" x="568.12" y="-18.5" font-family="Helvetica,sans-Serif" font-size="10.00">test/driver_hmc5883l</text>
<text xml:space="preserve" text-anchor="middle" x="613.5" y="-6.5" font-family="Helvetica,sans-Serif" font-size="10.00">_register_test.c</text>
</a>
</g>
</g>
<!-- Node9&#45;&gt;Node10 -->
<g id="edge9_Node000009_Node000010" class="edge">
<title>Node9&#45;&gt;Node10</title>
<g id="a_edge9_Node000009_Node000010"><a xlink:title=" ">
<path fill="none" stroke="#63b8ff" d="M613.5,-56.31C613.5,-48.12 613.5,-39.38 613.5,-32.22"/>
<polygon fill="#63b8ff" stroke="#63b8ff" points="610,-56.18 613.5,-66.18 617,-56.18 610,-56.18"/>
</a>
</g>
</g>
</g>
</svg>
