<?xml version="1.0" encoding="UTF-8" standalone="no"?>
<!DOCTYPE svg PUBLIC "-//W3C//DTD SVG 1.1//EN"
 "http://www.w3.org/Graphics/SVG/1.1/DTD/svg11.dtd">
<!-- Generated by graphviz version 13.1.0 (20250701.0955)
 -->
<!-- Title: hmc5883l_shot_init Pages: 1 -->
<svg width="299pt" height="580pt"
 viewBox="0.00 0.00 299.00 580.00" xmlns="http://www.w3.org/2000/svg" xmlns:xlink="http://www.w3.org/1999/xlink">
<g id="graph0" class="graph" transform="scale(1 1) rotate(0) translate(4 576)">
<title>hmc5883l_shot_init</title>
<!-- Node1 -->
<g id="Node000001" class="node">
<title>Node1</title>
<g id="a_Node000001"><a xlink:title="shot example init">
<polygon fill="#999999" stroke="#666666" points="100,-290 0,-290 0,-270 100,-270 100,-290"/>
<text xml:space="preserve" text-anchor="middle" x="50" y="-276.5" font-family="Helvetica,sans-Serif" font-size="10.00">hmc5883l_shot_init</text>
</a>
</g>
</g>
<!-- Node2 -->
<g id="Node000002" class="node">
<title>Node2</title>
<g id="a_Node000002"><a xlink:href="group__hmc5883l__base__driver.html#ga6cb64ac1ea2084ad95ae6b6840281866" target="_top" xlink:title="close the chip">
<polygon fill="white" stroke="#666666" points="256.62,-572 170.12,-572 170.12,-552 256.62,-552 256.62,-572"/>
<text xml:space="preserve" text-anchor="middle" x="213.38" y="-558.5" font-family="Helvetica,sans-Serif" font-size="10.00">hmc5883l_deinit</text>
</a>
</g>
</g>
<!-- Node1&#45;&gt;Node2 -->
<g id="edge1_Node000001_Node000002" class="edge">
<title>Node1&#45;&gt;Node2</title>
<g id="a_edge1_Node000001_Node000002"><a xlink:title=" ">
<path fill="none" stroke="#63b8ff" d="M51,-290.4C51.59,-329.8 59.18,-471.29 136,-543 142.46,-549.03 150.53,-553.23 158.99,-556.13"/>
<polygon fill="#63b8ff" stroke="#63b8ff" points="157.78,-559.43 168.36,-558.75 159.67,-552.69 157.78,-559.43"/>
</a>
</g>
</g>
<!-- Node3 -->
<g id="Node000003" class="node">
<title>Node3</title>
<g id="a_Node000003"><a xlink:href="group__hmc5883l__base__driver.html#gaf994f57a8291b55aaf42095e4792bec8" target="_top" xlink:title="enable the high speed iic">
<polygon fill="white" stroke="#666666" points="270.88,-534 155.88,-534 155.88,-502 270.88,-502 270.88,-534"/>
<text xml:space="preserve" text-anchor="start" x="163.88" y="-520.5" font-family="Helvetica,sans-Serif" font-size="10.00">hmc5883l_enable_high</text>
<text xml:space="preserve" text-anchor="middle" x="213.38" y="-508.5" font-family="Helvetica,sans-Serif" font-size="10.00">_speed_iic</text>
</a>
</g>
</g>
<!-- Node1&#45;&gt;Node3 -->
<g id="edge2_Node000001_Node000003" class="edge">
<title>Node1&#45;&gt;Node3</title>
<g id="a_edge2_Node000001_Node000003"><a xlink:title=" ">
<path fill="none" stroke="#63b8ff" d="M52.04,-290.13C56.05,-324 73.58,-434.42 136,-493 138.88,-495.71 142.07,-498.12 145.45,-500.28"/>
<polygon fill="#63b8ff" stroke="#63b8ff" points="143.62,-503.27 154.08,-504.96 146.96,-497.11 143.62,-503.27"/>
</a>
</g>
</g>
<!-- Node4 -->
<g id="Node000004" class="node">
<title>Node4</title>
<g id="a_Node000004"><a xlink:href="group__hmc5883l__base__driver.html#ga3b2bd2e078e6f551e0cf83372c71748a" target="_top" xlink:title="initialize the chip">
<polygon fill="white" stroke="#666666" points="251.38,-484 175.38,-484 175.38,-464 251.38,-464 251.38,-484"/>
<text xml:space="preserve" text-anchor="middle" x="213.38" y="-470.5" font-family="Helvetica,sans-Serif" font-size="10.00">hmc5883l_init</text>
</a>
</g>
</g>
<!-- Node1&#45;&gt;Node4 -->
<g id="edge3_Node000001_Node000004" class="edge">
<title>Node1&#45;&gt;Node4</title>
<g id="a_edge3_Node000001_Node000004"><a xlink:title=" ">
<path fill="none" stroke="#63b8ff" d="M52.82,-290.16C58.79,-320.34 80.64,-410.12 136,-455 144.11,-461.57 154.17,-465.91 164.31,-468.77"/>
<polygon fill="#63b8ff" stroke="#63b8ff" points="163.24,-472.11 173.77,-470.98 164.83,-465.3 163.24,-472.11"/>
</a>
</g>
</g>
<!-- Node5 -->
<g id="Node000005" class="node">
<title>Node5</title>
<g id="a_Node000005"><a xlink:href="group__hmc5883l__interface__driver.html#ga785c64a2b369dd59758cfee88f3ca375" target="_top" xlink:title="interface print format data">
<polygon fill="white" stroke="#666666" points="263.75,-446 163,-446 163,-414 263.75,-414 263.75,-446"/>
<text xml:space="preserve" text-anchor="start" x="171" y="-432.5" font-family="Helvetica,sans-Serif" font-size="10.00">hmc5883l_interface</text>
<text xml:space="preserve" text-anchor="middle" x="213.38" y="-420.5" font-family="Helvetica,sans-Serif" font-size="10.00">_debug_print</text>
</a>
</g>
</g>
<!-- Node1&#45;&gt;Node5 -->
<g id="edge4_Node000001_Node000005" class="edge">
<title>Node1&#45;&gt;Node5</title>
<g id="a_edge4_Node000001_Node000005"><a xlink:title=" ">
<path fill="none" stroke="#63b8ff" d="M55.25,-290.44C65.49,-314.31 93.85,-373.29 136,-405 140.95,-408.72 146.47,-411.9 152.23,-414.62"/>
<polygon fill="#63b8ff" stroke="#63b8ff" points="150.8,-417.82 161.37,-418.45 153.5,-411.36 150.8,-417.82"/>
</a>
</g>
</g>
<!-- Node6 -->
<g id="Node000006" class="node">
<title>Node6</title>
<g id="a_Node000006"><a xlink:href="group__hmc5883l__interface__driver.html#gaa7f707ac875f42558b66ecac81f6b1c8" target="_top" xlink:title="interface delay ms">
<polygon fill="white" stroke="#666666" points="263.75,-396 163,-396 163,-364 263.75,-364 263.75,-396"/>
<text xml:space="preserve" text-anchor="start" x="171" y="-382.5" font-family="Helvetica,sans-Serif" font-size="10.00">hmc5883l_interface</text>
<text xml:space="preserve" text-anchor="middle" x="213.38" y="-370.5" font-family="Helvetica,sans-Serif" font-size="10.00">_delay_ms</text>
</a>
</g>
</g>
<!-- Node1&#45;&gt;Node6 -->
<g id="edge5_Node000001_Node000006" class="edge">
<title>Node1&#45;&gt;Node6</title>
<g id="a_edge5_Node000001_Node000006"><a xlink:title=" ">
<path fill="none" stroke="#63b8ff" d="M60.17,-290.45C74.74,-306.48 104.74,-337.12 136,-355 141.02,-357.87 146.41,-360.47 151.93,-362.8"/>
<polygon fill="#63b8ff" stroke="#63b8ff" points="150.63,-366.05 161.22,-366.43 153.17,-359.53 150.63,-366.05"/>
</a>
</g>
</g>
<!-- Node7 -->
<g id="Node000007" class="node">
<title>Node7</title>
<g id="a_Node000007"><a xlink:href="group__hmc5883l__interface__driver.html#ga09eb211ccbc9c9ec357638f853a658ea" target="_top" xlink:title="interface iic bus deinit">
<polygon fill="white" stroke="#666666" points="263.75,-346 163,-346 163,-314 263.75,-314 263.75,-346"/>
<text xml:space="preserve" text-anchor="start" x="171" y="-332.5" font-family="Helvetica,sans-Serif" font-size="10.00">hmc5883l_interface</text>
<text xml:space="preserve" text-anchor="middle" x="213.38" y="-320.5" font-family="Helvetica,sans-Serif" font-size="10.00">_iic_deinit</text>
</a>
</g>
</g>
<!-- Node1&#45;&gt;Node7 -->
<g id="edge6_Node000001_Node000007" class="edge">
<title>Node1&#45;&gt;Node7</title>
<g id="a_edge6_Node000001_Node000007"><a xlink:title=" ">
<path fill="none" stroke="#63b8ff" d="M84.83,-290.48C104.21,-296.49 129.11,-304.2 151.76,-311.22"/>
<polygon fill="#63b8ff" stroke="#63b8ff" points="150.62,-314.53 161.21,-314.15 152.7,-307.84 150.62,-314.53"/>
</a>
</g>
</g>
<!-- Node8 -->
<g id="Node000008" class="node">
<title>Node8</title>
<g id="a_Node000008"><a xlink:href="group__hmc5883l__interface__driver.html#gad04a0e504a2c4c48037d2a2a46b2b2b7" target="_top" xlink:title="interface iic bus init">
<polygon fill="white" stroke="#666666" points="263.75,-296 163,-296 163,-264 263.75,-264 263.75,-296"/>
<text xml:space="preserve" text-anchor="start" x="171" y="-282.5" font-family="Helvetica,sans-Serif" font-size="10.00">hmc5883l_interface</text>
<text xml:space="preserve" text-anchor="middle" x="213.38" y="-270.5" font-family="Helvetica,sans-Serif" font-size="10.00">_iic_init</text>
</a>
</g>
</g>
<!-- Node1&#45;&gt;Node8 -->
<g id="edge7_Node000001_Node000008" class="edge">
<title>Node1&#45;&gt;Node8</title>
<g id="a_edge7_Node000001_Node000008"><a xlink:title=" ">
<path fill="none" stroke="#63b8ff" d="M100.29,-280C116.34,-280 134.34,-280 151.14,-280"/>
<polygon fill="#63b8ff" stroke="#63b8ff" points="151.03,-283.5 161.03,-280 151.03,-276.5 151.03,-283.5"/>
</a>
</g>
</g>
<!-- Node9 -->
<g id="Node000009" class="node">
<title>Node9</title>
<g id="a_Node000009"><a xlink:href="group__hmc5883l__interface__driver.html#ga2cc7c945bc5b42f70c961b1974f95910" target="_top" xlink:title="interface iic bus read">
<polygon fill="white" stroke="#666666" points="263.75,-246 163,-246 163,-214 263.75,-214 263.75,-246"/>
<text xml:space="preserve" text-anchor="start" x="171" y="-232.5" font-family="Helvetica,sans-Serif" font-size="10.00">hmc5883l_interface</text>
<text xml:space="preserve" text-anchor="middle" x="213.38" y="-220.5" font-family="Helvetica,sans-Serif" font-size="10.00">_iic_read</text>
</a>
</g>
</g>
<!-- Node1&#45;&gt;Node9 -->
<g id="edge8_Node000001_Node000009" class="edge">
<title>Node1&#45;&gt;Node9</title>
<g id="a_edge8_Node000001_Node000009"><a xlink:title=" ">
<path fill="none" stroke="#63b8ff" d="M84.83,-269.52C104.21,-263.51 129.11,-255.8 151.76,-248.78"/>
<polygon fill="#63b8ff" stroke="#63b8ff" points="152.7,-252.16 161.21,-245.85 150.62,-245.47 152.7,-252.16"/>
</a>
</g>
</g>
<!-- Node10 -->
<g id="Node000010" class="node">
<title>Node10</title>
<g id="a_Node000010"><a xlink:href="group__hmc5883l__interface__driver.html#gadddc9561d04a967cc1f5dea38d439c2b" target="_top" xlink:title="interface iic bus write">
<polygon fill="white" stroke="#666666" points="263.75,-196 163,-196 163,-164 263.75,-164 263.75,-196"/>
<text xml:space="preserve" text-anchor="start" x="171" y="-182.5" font-family="Helvetica,sans-Serif" font-size="10.00">hmc5883l_interface</text>
<text xml:space="preserve" text-anchor="middle" x="213.38" y="-170.5" font-family="Helvetica,sans-Serif" font-size="10.00">_iic_write</text>
</a>
</g>
</g>
<!-- Node1&#45;&gt;Node10 -->
<g id="edge9_Node000001_Node000010" class="edge">
<title>Node1&#45;&gt;Node10</title>
<g id="a_edge9_Node000001_Node000010"><a xlink:title=" ">
<path fill="none" stroke="#63b8ff" d="M60.17,-269.55C74.74,-253.52 104.74,-222.88 136,-205 141.02,-202.13 146.41,-199.53 151.93,-197.2"/>
<polygon fill="#63b8ff" stroke="#63b8ff" points="153.17,-200.47 161.22,-193.57 150.63,-193.95 153.17,-200.47"/>
</a>
</g>
</g>
<!-- Node11 -->
<g id="Node000011" class="node">
<title>Node11</title>
<g id="a_Node000011"><a xlink:href="group__hmc5883l__base__driver.html#ga3661e0c74cc15667fc152d299ef80b83" target="_top" xlink:title="set the average sample rate">
<polygon fill="white" stroke="#666666" points="271.62,-146 155.12,-146 155.12,-114 271.62,-114 271.62,-146"/>
<text xml:space="preserve" text-anchor="start" x="163.12" y="-132.5" font-family="Helvetica,sans-Serif" font-size="10.00">hmc5883l_set_average</text>
<text xml:space="preserve" text-anchor="middle" x="213.38" y="-120.5" font-family="Helvetica,sans-Serif" font-size="10.00">_sample</text>
</a>
</g>
</g>
<!-- Node1&#45;&gt;Node11 -->
<g id="edge10_Node000001_Node000011" class="edge">
<title>Node1&#45;&gt;Node11</title>
<g id="a_edge10_Node000001_Node000011"><a xlink:title=" ">
<path fill="none" stroke="#63b8ff" d="M55.25,-269.56C65.49,-245.69 93.85,-186.71 136,-155 138.75,-152.93 141.69,-151.02 144.74,-149.27"/>
<polygon fill="#63b8ff" stroke="#63b8ff" points="146.12,-152.5 153.47,-144.87 142.97,-146.25 146.12,-152.5"/>
</a>
</g>
</g>
<!-- Node12 -->
<g id="Node000012" class="node">
<title>Node12</title>
<g id="a_Node000012"><a xlink:href="group__hmc5883l__base__driver.html#ga3eca03e04402c489e4ff6261f91cd6cf" target="_top" xlink:title="set the data output rate">
<polygon fill="white" stroke="#666666" points="290.75,-96 136,-96 136,-76 290.75,-76 290.75,-96"/>
<text xml:space="preserve" text-anchor="middle" x="213.38" y="-82.5" font-family="Helvetica,sans-Serif" font-size="10.00">hmc5883l_set_data_output_rate</text>
</a>
</g>
</g>
<!-- Node1&#45;&gt;Node12 -->
<g id="edge11_Node000001_Node000012" class="edge">
<title>Node1&#45;&gt;Node12</title>
<g id="a_edge11_Node000001_Node000012"><a xlink:title=" ">
<path fill="none" stroke="#63b8ff" d="M52.82,-269.84C58.79,-239.66 80.64,-149.88 136,-105 137.33,-103.92 138.71,-102.91 140.13,-101.95"/>
<polygon fill="#63b8ff" stroke="#63b8ff" points="141.73,-105.07 148.76,-97.14 138.32,-98.95 141.73,-105.07"/>
</a>
</g>
</g>
<!-- Node13 -->
<g id="Node000013" class="node">
<title>Node13</title>
<g id="a_Node000013"><a xlink:href="group__hmc5883l__base__driver.html#ga305a479d974545fb511da21d93ae5ba8" target="_top" xlink:title="set the chip gain">
<polygon fill="white" stroke="#666666" points="263.38,-58 163.38,-58 163.38,-38 263.38,-38 263.38,-58"/>
<text xml:space="preserve" text-anchor="middle" x="213.38" y="-44.5" font-family="Helvetica,sans-Serif" font-size="10.00">hmc5883l_set_gain</text>
</a>
</g>
</g>
<!-- Node1&#45;&gt;Node13 -->
<g id="edge12_Node000001_Node000013" class="edge">
<title>Node1&#45;&gt;Node13</title>
<g id="a_edge12_Node000001_Node000013"><a xlink:title=" ">
<path fill="none" stroke="#63b8ff" d="M51.88,-269.69C55.39,-235.26 71.5,-123.28 136,-67 140.88,-62.74 146.57,-59.41 152.61,-56.8"/>
<polygon fill="#63b8ff" stroke="#63b8ff" points="153.35,-60.26 161.58,-53.59 150.99,-53.67 153.35,-60.26"/>
</a>
</g>
</g>
<!-- Node14 -->
<g id="Node000014" class="node">
<title>Node14</title>
<g id="a_Node000014"><a xlink:href="group__hmc5883l__base__driver.html#ga0b116caac921bee164f644530eea8b71" target="_top" xlink:title="set the chip mode">
<polygon fill="white" stroke="#666666" points="266.38,-20 160.38,-20 160.38,0 266.38,0 266.38,-20"/>
<text xml:space="preserve" text-anchor="middle" x="213.38" y="-6.5" font-family="Helvetica,sans-Serif" font-size="10.00">hmc5883l_set_mode</text>
</a>
</g>
</g>
<!-- Node1&#45;&gt;Node14 -->
<g id="edge13_Node000001_Node000014" class="edge">
<title>Node1&#45;&gt;Node14</title>
<g id="a_edge13_Node000001_Node000014"><a xlink:title=" ">
<path fill="none" stroke="#63b8ff" d="M51.18,-269.54C52.45,-231.18 62.21,-96.93 136,-29 140,-25.32 144.6,-22.32 149.52,-19.89"/>
<polygon fill="#63b8ff" stroke="#63b8ff" points="150.62,-23.22 158.57,-16.21 147.99,-16.73 150.62,-23.22"/>
</a>
</g>
</g>
</g>
</svg>
