<?xml version="1.0" encoding="UTF-8" standalone="no"?>
<!DOCTYPE svg PUBLIC "-//W3C//DTD SVG 1.1//EN"
 "http://www.w3.org/Graphics/SVG/1.1/DTD/svg11.dtd">
<!-- Generated by graphviz version 13.1.0 (20250701.0955)
 -->
<!-- Title: hmc5883l driver function Pages: 1 -->
<svg width="291pt" height="290pt"
 viewBox="0.00 0.00 291.00 290.00" xmlns="http://www.w3.org/2000/svg" xmlns:xlink="http://www.w3.org/1999/xlink">
<g id="graph0" class="graph" transform="scale(1 1) rotate(0) translate(4 286)">
<title>hmc5883l driver function</title>
<!-- Node3 -->
<g id="Node000003" class="node">
<title>Node3</title>
<g id="a_Node000003"><a xlink:href="group__hmc5883l__base__driver.html" target="_top" xlink:title="hmc5883l base driver modules">
<polygon fill="white" stroke="#666666" points="275.38,-282 166.38,-282 166.38,-250 275.38,-250 275.38,-282"/>
<text xml:space="preserve" text-anchor="start" x="174.38" y="-268.5" font-family="Helvetica,sans-Serif" font-size="10.00">hmc5883l base driver</text>
<text xml:space="preserve" text-anchor="middle" x="220.88" y="-256.5" font-family="Helvetica,sans-Serif" font-size="10.00"> function</text>
</a>
</g>
</g>
<!-- Node1 -->
<g id="Node000001" class="node">
<title>Node1</title>
<g id="a_Node000001"><a xlink:title="hmc5883l driver modules">
<polygon fill="#999999" stroke="#666666" points="122.5,-151 0,-151 0,-131 122.5,-131 122.5,-151"/>
<text xml:space="preserve" text-anchor="middle" x="61.25" y="-137.5" font-family="Helvetica,sans-Serif" font-size="10.00">hmc5883l driver function</text>
</a>
</g>
</g>
<!-- Node1&#45;&gt;Node3 -->
<g id="edge2" class="edge">
<title>Node1&#45;&gt;Node3</title>
<path fill="none" stroke="black" d="M76.87,-160.52C94.24,-182.59 125.12,-218.37 158.5,-241 163.17,-244.16 168.3,-247.03 173.54,-249.6"/>
<polygon fill="black" stroke="black" points="79.67,-158.43 70.8,-152.65 74.13,-162.7 79.67,-158.43"/>
</g>
<!-- Node6 -->
<g id="Node000006" class="node">
<title>Node6</title>
<g id="a_Node000006"><a xlink:href="group__hmc5883l__example__driver.html" target="_top" xlink:title="hmc5883l example driver modules">
<polygon fill="white" stroke="#666666" points="283.25,-232 158.5,-232 158.5,-200 283.25,-200 283.25,-232"/>
<text xml:space="preserve" text-anchor="start" x="166.5" y="-218.5" font-family="Helvetica,sans-Serif" font-size="10.00">hmc5883l example driver</text>
<text xml:space="preserve" text-anchor="middle" x="220.88" y="-206.5" font-family="Helvetica,sans-Serif" font-size="10.00"> function</text>
</a>
</g>
</g>
<!-- Node1&#45;&gt;Node6 -->
<g id="edge5" class="edge">
<title>Node1&#45;&gt;Node6</title>
<path fill="none" stroke="black" d="M91.23,-156.95C110.16,-167.14 135.53,-180.38 158.5,-191 164.77,-193.9 171.47,-196.81 178.05,-199.57"/>
<polygon fill="black" stroke="black" points="92.96,-153.9 82.5,-152.21 89.62,-160.05 92.96,-153.9"/>
</g>
<!-- Node4 -->
<g id="Node000004" class="node">
<title>Node4</title>
<g id="a_Node000004"><a xlink:href="group__hmc5883l__extend__driver.html" target="_top" xlink:title="hmc5883l extend driver modules">
<polygon fill="white" stroke="#666666" points="279.5,-182 162.25,-182 162.25,-150 279.5,-150 279.5,-182"/>
<text xml:space="preserve" text-anchor="start" x="170.25" y="-168.5" font-family="Helvetica,sans-Serif" font-size="10.00">hmc5883l extend driver</text>
<text xml:space="preserve" text-anchor="middle" x="220.88" y="-156.5" font-family="Helvetica,sans-Serif" font-size="10.00"> function</text>
</a>
</g>
</g>
<!-- Node1&#45;&gt;Node4 -->
<g id="edge3" class="edge">
<title>Node1&#45;&gt;Node4</title>
<path fill="none" stroke="black" d="M134.02,-152.38C143.35,-153.86 152.81,-155.36 161.88,-156.8"/>
<polygon fill="black" stroke="black" points="134.66,-148.94 124.24,-150.83 133.56,-155.85 134.66,-148.94"/>
</g>
<!-- Node5 -->
<g id="Node000005" class="node">
<title>Node5</title>
<g id="a_Node000005"><a xlink:href="group__hmc5883l__interface__driver.html" target="_top" xlink:title="hmc5883l interface driver modules">
<polygon fill="white" stroke="#666666" points="270.12,-132 171.62,-132 171.62,-100 270.12,-100 270.12,-132"/>
<text xml:space="preserve" text-anchor="start" x="179.62" y="-118.5" font-family="Helvetica,sans-Serif" font-size="10.00">hmc5883l interface</text>
<text xml:space="preserve" text-anchor="middle" x="220.88" y="-106.5" font-family="Helvetica,sans-Serif" font-size="10.00"> driver function</text>
</a>
</g>
</g>
<!-- Node1&#45;&gt;Node5 -->
<g id="edge4" class="edge">
<title>Node1&#45;&gt;Node5</title>
<path fill="none" stroke="black" d="M133.85,-129.64C146.6,-127.62 159.61,-125.56 171.52,-123.67"/>
<polygon fill="black" stroke="black" points="133.56,-126.15 124.24,-131.17 134.66,-133.06 133.56,-126.15"/>
</g>
<!-- Node2 -->
<g id="Node000002" class="node">
<title>Node2</title>
<g id="a_Node000002"><a xlink:href="group__hmc5883l__link__driver.html" target="_top" xlink:title="hmc5883l link driver modules">
<polygon fill="white" stroke="#666666" points="272.38,-82 169.38,-82 169.38,-50 272.38,-50 272.38,-82"/>
<text xml:space="preserve" text-anchor="start" x="177.38" y="-68.5" font-family="Helvetica,sans-Serif" font-size="10.00">hmc5883l link driver</text>
<text xml:space="preserve" text-anchor="middle" x="220.88" y="-56.5" font-family="Helvetica,sans-Serif" font-size="10.00"> function</text>
</a>
</g>
</g>
<!-- Node1&#45;&gt;Node2 -->
<g id="edge1" class="edge">
<title>Node1&#45;&gt;Node2</title>
<path fill="none" stroke="black" d="M91.23,-125.05C110.16,-114.86 135.53,-101.62 158.5,-91 164.77,-88.1 171.47,-85.19 178.05,-82.43"/>
<polygon fill="black" stroke="black" points="89.62,-121.95 82.5,-129.79 92.96,-128.1 89.62,-121.95"/>
</g>
<!-- Node7 -->
<g id="Node000007" class="node">
<title>Node7</title>
<g id="a_Node000007"><a xlink:href="group__hmc5883l__test__driver.html" target="_top" xlink:title="hmc5883l test driver modules">
<polygon fill="white" stroke="#666666" points="273.12,-32 168.62,-32 168.62,0 273.12,0 273.12,-32"/>
<text xml:space="preserve" text-anchor="start" x="176.62" y="-18.5" font-family="Helvetica,sans-Serif" font-size="10.00">hmc5883l test driver</text>
<text xml:space="preserve" text-anchor="middle" x="220.88" y="-6.5" font-family="Helvetica,sans-Serif" font-size="10.00"> function</text>
</a>
</g>
</g>
<!-- Node1&#45;&gt;Node7 -->
<g id="edge6" class="edge">
<title>Node1&#45;&gt;Node7</title>
<path fill="none" stroke="black" d="M76.87,-121.48C94.24,-99.41 125.12,-63.63 158.5,-41 163.17,-37.84 168.3,-34.97 173.54,-32.4"/>
<polygon fill="black" stroke="black" points="74.13,-119.3 70.8,-129.35 79.67,-123.57 74.13,-119.3"/>
</g>
</g>
</svg>
