<?xml version="1.0" encoding="UTF-8" standalone="no"?>
<!DOCTYPE svg PUBLIC "-//W3C//DTD SVG 1.1//EN"
 "http://www.w3.org/Graphics/SVG/1.1/DTD/svg11.dtd">
<!-- Generated by graphviz version 13.1.0 (20250701.0955)
 -->
<!-- Title: hmc5883l_basic_init Pages: 1 -->
<svg width="308pt" height="618pt"
 viewBox="0.00 0.00 308.00 618.00" xmlns="http://www.w3.org/2000/svg" xmlns:xlink="http://www.w3.org/1999/xlink">
<g id="graph0" class="graph" transform="scale(1 1) rotate(0) translate(4 614)">
<title>hmc5883l_basic_init</title>
<!-- Node1 -->
<g id="Node000001" class="node">
<title>Node1</title>
<g id="a_Node000001"><a xlink:title="basic example init">
<polygon fill="#999999" stroke="#666666" points="104.5,-303 0,-303 0,-283 104.5,-283 104.5,-303"/>
<text xml:space="preserve" text-anchor="middle" x="52.25" y="-289.5" font-family="Helvetica,sans-Serif" font-size="10.00">hmc5883l_basic_init</text>
</a>
</g>
</g>
<!-- Node2 -->
<g id="Node000002" class="node">
<title>Node2</title>
<g id="a_Node000002"><a xlink:href="group__hmc5883l__base__driver.html#ga6cb64ac1ea2084ad95ae6b6840281866" target="_top" xlink:title="close the chip">
<polygon fill="white" stroke="#666666" points="263.38,-610 176.88,-610 176.88,-590 263.38,-590 263.38,-610"/>
<text xml:space="preserve" text-anchor="middle" x="220.12" y="-596.5" font-family="Helvetica,sans-Serif" font-size="10.00">hmc5883l_deinit</text>
</a>
</g>
</g>
<!-- Node1&#45;&gt;Node2 -->
<g id="edge1_Node000001_Node000002" class="edge">
<title>Node1&#45;&gt;Node2</title>
<g id="a_edge1_Node000001_Node000002"><a xlink:title=" ">
<path fill="none" stroke="#63b8ff" d="M52.99,-303.23C52.52,-344.69 56.56,-501.72 140.5,-581 147.47,-587.58 156.32,-592.01 165.54,-594.95"/>
<polygon fill="#63b8ff" stroke="#63b8ff" points="164.43,-598.28 174.99,-597.4 166.18,-591.51 164.43,-598.28"/>
</a>
</g>
</g>
<!-- Node3 -->
<g id="Node000003" class="node">
<title>Node3</title>
<g id="a_Node000003"><a xlink:href="group__hmc5883l__base__driver.html#gaf994f57a8291b55aaf42095e4792bec8" target="_top" xlink:title="enable the high speed iic">
<polygon fill="white" stroke="#666666" points="277.62,-572 162.62,-572 162.62,-540 277.62,-540 277.62,-572"/>
<text xml:space="preserve" text-anchor="start" x="170.62" y="-558.5" font-family="Helvetica,sans-Serif" font-size="10.00">hmc5883l_enable_high</text>
<text xml:space="preserve" text-anchor="middle" x="220.12" y="-546.5" font-family="Helvetica,sans-Serif" font-size="10.00">_speed_iic</text>
</a>
</g>
</g>
<!-- Node1&#45;&gt;Node3 -->
<g id="edge2_Node000001_Node000003" class="edge">
<title>Node1&#45;&gt;Node3</title>
<g id="a_edge2_Node000001_Node000003"><a xlink:title=" ">
<path fill="none" stroke="#63b8ff" d="M53.91,-303.29C56.79,-339.87 71.52,-464.96 140.5,-531 143.99,-534.34 147.93,-537.24 152.13,-539.75"/>
<polygon fill="#63b8ff" stroke="#63b8ff" points="150.5,-542.84 161,-544.24 153.66,-536.6 150.5,-542.84"/>
</a>
</g>
</g>
<!-- Node4 -->
<g id="Node000004" class="node">
<title>Node4</title>
<g id="a_Node000004"><a xlink:href="group__hmc5883l__base__driver.html#ga3b2bd2e078e6f551e0cf83372c71748a" target="_top" xlink:title="initialize the chip">
<polygon fill="white" stroke="#666666" points="258.12,-522 182.12,-522 182.12,-502 258.12,-502 258.12,-522"/>
<text xml:space="preserve" text-anchor="middle" x="220.12" y="-508.5" font-family="Helvetica,sans-Serif" font-size="10.00">hmc5883l_init</text>
</a>
</g>
</g>
<!-- Node1&#45;&gt;Node4 -->
<g id="edge3_Node000001_Node000004" class="edge">
<title>Node1&#45;&gt;Node4</title>
<g id="a_edge3_Node000001_Node000004"><a xlink:title=" ">
<path fill="none" stroke="#63b8ff" d="M54.51,-303.17C59.16,-336.14 78.41,-440.88 140.5,-493 149.04,-500.17 159.85,-504.72 170.7,-507.58"/>
<polygon fill="#63b8ff" stroke="#63b8ff" points="169.93,-511 180.44,-509.68 171.4,-504.16 169.93,-511"/>
</a>
</g>
</g>
<!-- Node5 -->
<g id="Node000005" class="node">
<title>Node5</title>
<g id="a_Node000005"><a xlink:href="group__hmc5883l__interface__driver.html#ga785c64a2b369dd59758cfee88f3ca375" target="_top" xlink:title="interface print format data">
<polygon fill="white" stroke="#666666" points="270.5,-484 169.75,-484 169.75,-452 270.5,-452 270.5,-484"/>
<text xml:space="preserve" text-anchor="start" x="177.75" y="-470.5" font-family="Helvetica,sans-Serif" font-size="10.00">hmc5883l_interface</text>
<text xml:space="preserve" text-anchor="middle" x="220.12" y="-458.5" font-family="Helvetica,sans-Serif" font-size="10.00">_debug_print</text>
</a>
</g>
</g>
<!-- Node1&#45;&gt;Node5 -->
<g id="edge4_Node000001_Node000005" class="edge">
<title>Node1&#45;&gt;Node5</title>
<g id="a_edge4_Node000001_Node000005"><a xlink:title=" ">
<path fill="none" stroke="#63b8ff" d="M56.39,-303.49C65.09,-330.71 92.08,-404.17 140.5,-443 146,-447.41 152.29,-451.05 158.87,-454.05"/>
<polygon fill="#63b8ff" stroke="#63b8ff" points="157.37,-457.22 167.95,-457.7 159.98,-450.72 157.37,-457.22"/>
</a>
</g>
</g>
<!-- Node6 -->
<g id="Node000006" class="node">
<title>Node6</title>
<g id="a_Node000006"><a xlink:href="group__hmc5883l__interface__driver.html#gaa7f707ac875f42558b66ecac81f6b1c8" target="_top" xlink:title="interface delay ms">
<polygon fill="white" stroke="#666666" points="270.5,-434 169.75,-434 169.75,-402 270.5,-402 270.5,-434"/>
<text xml:space="preserve" text-anchor="start" x="177.75" y="-420.5" font-family="Helvetica,sans-Serif" font-size="10.00">hmc5883l_interface</text>
<text xml:space="preserve" text-anchor="middle" x="220.12" y="-408.5" font-family="Helvetica,sans-Serif" font-size="10.00">_delay_ms</text>
</a>
</g>
</g>
<!-- Node1&#45;&gt;Node6 -->
<g id="edge5_Node000001_Node000006" class="edge">
<title>Node1&#45;&gt;Node6</title>
<g id="a_edge5_Node000001_Node000006"><a xlink:title=" ">
<path fill="none" stroke="#63b8ff" d="M59.55,-303.44C72.29,-323.7 103.13,-368.48 140.5,-393 146.24,-396.76 152.58,-399.99 159.1,-402.76"/>
<polygon fill="#63b8ff" stroke="#63b8ff" points="157.43,-405.87 168.02,-406.19 159.95,-399.33 157.43,-405.87"/>
</a>
</g>
</g>
<!-- Node7 -->
<g id="Node000007" class="node">
<title>Node7</title>
<g id="a_Node000007"><a xlink:href="group__hmc5883l__interface__driver.html#ga09eb211ccbc9c9ec357638f853a658ea" target="_top" xlink:title="interface iic bus deinit">
<polygon fill="white" stroke="#666666" points="270.5,-384 169.75,-384 169.75,-352 270.5,-352 270.5,-384"/>
<text xml:space="preserve" text-anchor="start" x="177.75" y="-370.5" font-family="Helvetica,sans-Serif" font-size="10.00">hmc5883l_interface</text>
<text xml:space="preserve" text-anchor="middle" x="220.12" y="-358.5" font-family="Helvetica,sans-Serif" font-size="10.00">_iic_deinit</text>
</a>
</g>
</g>
<!-- Node1&#45;&gt;Node7 -->
<g id="edge6_Node000001_Node000007" class="edge">
<title>Node1&#45;&gt;Node7</title>
<g id="a_edge6_Node000001_Node000007"><a xlink:title=" ">
<path fill="none" stroke="#63b8ff" d="M69.11,-303.47C86.2,-314.41 114.45,-331.55 140.5,-343 146.38,-345.58 152.61,-348.03 158.89,-350.31"/>
<polygon fill="#63b8ff" stroke="#63b8ff" points="157.43,-353.51 168.03,-353.48 159.73,-346.89 157.43,-353.51"/>
</a>
</g>
</g>
<!-- Node8 -->
<g id="Node000008" class="node">
<title>Node8</title>
<g id="a_Node000008"><a xlink:href="group__hmc5883l__interface__driver.html#gad04a0e504a2c4c48037d2a2a46b2b2b7" target="_top" xlink:title="interface iic bus init">
<polygon fill="white" stroke="#666666" points="270.5,-334 169.75,-334 169.75,-302 270.5,-302 270.5,-334"/>
<text xml:space="preserve" text-anchor="start" x="177.75" y="-320.5" font-family="Helvetica,sans-Serif" font-size="10.00">hmc5883l_interface</text>
<text xml:space="preserve" text-anchor="middle" x="220.12" y="-308.5" font-family="Helvetica,sans-Serif" font-size="10.00">_iic_init</text>
</a>
</g>
</g>
<!-- Node1&#45;&gt;Node8 -->
<g id="edge7_Node000001_Node000008" class="edge">
<title>Node1&#45;&gt;Node8</title>
<g id="a_edge7_Node000001_Node000008"><a xlink:title=" ">
<path fill="none" stroke="#63b8ff" d="M104.82,-300.77C121.68,-303.31 140.55,-306.16 158.04,-308.79"/>
<polygon fill="#63b8ff" stroke="#63b8ff" points="157.38,-312.23 167.79,-310.26 158.42,-305.31 157.38,-312.23"/>
</a>
</g>
</g>
<!-- Node9 -->
<g id="Node000009" class="node">
<title>Node9</title>
<g id="a_Node000009"><a xlink:href="group__hmc5883l__interface__driver.html#ga2cc7c945bc5b42f70c961b1974f95910" target="_top" xlink:title="interface iic bus read">
<polygon fill="white" stroke="#666666" points="270.5,-284 169.75,-284 169.75,-252 270.5,-252 270.5,-284"/>
<text xml:space="preserve" text-anchor="start" x="177.75" y="-270.5" font-family="Helvetica,sans-Serif" font-size="10.00">hmc5883l_interface</text>
<text xml:space="preserve" text-anchor="middle" x="220.12" y="-258.5" font-family="Helvetica,sans-Serif" font-size="10.00">_iic_read</text>
</a>
</g>
</g>
<!-- Node1&#45;&gt;Node9 -->
<g id="edge8_Node000001_Node000009" class="edge">
<title>Node1&#45;&gt;Node9</title>
<g id="a_edge8_Node000001_Node000009"><a xlink:title=" ">
<path fill="none" stroke="#63b8ff" d="M104.82,-285.23C121.68,-282.69 140.55,-279.84 158.04,-277.21"/>
<polygon fill="#63b8ff" stroke="#63b8ff" points="158.42,-280.69 167.79,-275.74 157.38,-273.77 158.42,-280.69"/>
</a>
</g>
</g>
<!-- Node10 -->
<g id="Node000010" class="node">
<title>Node10</title>
<g id="a_Node000010"><a xlink:href="group__hmc5883l__interface__driver.html#gadddc9561d04a967cc1f5dea38d439c2b" target="_top" xlink:title="interface iic bus write">
<polygon fill="white" stroke="#666666" points="270.5,-234 169.75,-234 169.75,-202 270.5,-202 270.5,-234"/>
<text xml:space="preserve" text-anchor="start" x="177.75" y="-220.5" font-family="Helvetica,sans-Serif" font-size="10.00">hmc5883l_interface</text>
<text xml:space="preserve" text-anchor="middle" x="220.12" y="-208.5" font-family="Helvetica,sans-Serif" font-size="10.00">_iic_write</text>
</a>
</g>
</g>
<!-- Node1&#45;&gt;Node10 -->
<g id="edge9_Node000001_Node000010" class="edge">
<title>Node1&#45;&gt;Node10</title>
<g id="a_edge9_Node000001_Node000010"><a xlink:title=" ">
<path fill="none" stroke="#63b8ff" d="M69.11,-282.53C86.2,-271.59 114.45,-254.45 140.5,-243 146.38,-240.42 152.61,-237.97 158.89,-235.69"/>
<polygon fill="#63b8ff" stroke="#63b8ff" points="159.73,-239.11 168.03,-232.52 157.43,-232.49 159.73,-239.11"/>
</a>
</g>
</g>
<!-- Node11 -->
<g id="Node000011" class="node">
<title>Node11</title>
<g id="a_Node000011"><a xlink:href="group__hmc5883l__base__driver.html#ga3661e0c74cc15667fc152d299ef80b83" target="_top" xlink:title="set the average sample rate">
<polygon fill="white" stroke="#666666" points="278.38,-184 161.88,-184 161.88,-152 278.38,-152 278.38,-184"/>
<text xml:space="preserve" text-anchor="start" x="169.88" y="-170.5" font-family="Helvetica,sans-Serif" font-size="10.00">hmc5883l_set_average</text>
<text xml:space="preserve" text-anchor="middle" x="220.12" y="-158.5" font-family="Helvetica,sans-Serif" font-size="10.00">_sample</text>
</a>
</g>
</g>
<!-- Node1&#45;&gt;Node11 -->
<g id="edge10_Node000001_Node000011" class="edge">
<title>Node1&#45;&gt;Node11</title>
<g id="a_edge10_Node000001_Node000011"><a xlink:title=" ">
<path fill="none" stroke="#63b8ff" d="M59.55,-282.56C72.29,-262.3 103.13,-217.52 140.5,-193 143.94,-190.75 147.59,-188.68 151.37,-186.8"/>
<polygon fill="#63b8ff" stroke="#63b8ff" points="152.53,-190.11 160.22,-182.83 149.66,-183.73 152.53,-190.11"/>
</a>
</g>
</g>
<!-- Node12 -->
<g id="Node000012" class="node">
<title>Node12</title>
<g id="a_Node000012"><a xlink:href="group__hmc5883l__base__driver.html#ga3eca03e04402c489e4ff6261f91cd6cf" target="_top" xlink:title="set the data output rate">
<polygon fill="white" stroke="#666666" points="297.5,-134 142.75,-134 142.75,-114 297.5,-114 297.5,-134"/>
<text xml:space="preserve" text-anchor="middle" x="220.12" y="-120.5" font-family="Helvetica,sans-Serif" font-size="10.00">hmc5883l_set_data_output_rate</text>
</a>
</g>
</g>
<!-- Node1&#45;&gt;Node12 -->
<g id="edge11_Node000001_Node000012" class="edge">
<title>Node1&#45;&gt;Node12</title>
<g id="a_edge11_Node000001_Node000012"><a xlink:title=" ">
<path fill="none" stroke="#63b8ff" d="M56.12,-282.71C64.31,-255.34 90.5,-180.27 140.5,-143 142.09,-141.82 143.74,-140.71 145.44,-139.67"/>
<polygon fill="#63b8ff" stroke="#63b8ff" points="147.03,-142.78 154.33,-135.1 143.83,-136.56 147.03,-142.78"/>
</a>
</g>
</g>
<!-- Node13 -->
<g id="Node000013" class="node">
<title>Node13</title>
<g id="a_Node000013"><a xlink:href="group__hmc5883l__base__driver.html#ga305a479d974545fb511da21d93ae5ba8" target="_top" xlink:title="set the chip gain">
<polygon fill="white" stroke="#666666" points="270.12,-96 170.12,-96 170.12,-76 270.12,-76 270.12,-96"/>
<text xml:space="preserve" text-anchor="middle" x="220.12" y="-82.5" font-family="Helvetica,sans-Serif" font-size="10.00">hmc5883l_set_gain</text>
</a>
</g>
</g>
<!-- Node1&#45;&gt;Node13 -->
<g id="edge12_Node000001_Node000013" class="edge">
<title>Node1&#45;&gt;Node13</title>
<g id="a_edge12_Node000001_Node000013"><a xlink:title=" ">
<path fill="none" stroke="#63b8ff" d="M54.87,-282.53C60.39,-250.55 81.51,-153.36 140.5,-105 145.99,-100.5 152.37,-97.04 159.09,-94.38"/>
<polygon fill="#63b8ff" stroke="#63b8ff" points="160,-97.76 168.39,-91.3 157.8,-91.12 160,-97.76"/>
</a>
</g>
</g>
<!-- Node14 -->
<g id="Node000014" class="node">
<title>Node14</title>
<g id="a_Node000014"><a xlink:href="group__hmc5883l__base__driver.html#ga0b116caac921bee164f644530eea8b71" target="_top" xlink:title="set the chip mode">
<polygon fill="white" stroke="#666666" points="273.12,-58 167.12,-58 167.12,-38 273.12,-38 273.12,-58"/>
<text xml:space="preserve" text-anchor="middle" x="220.12" y="-44.5" font-family="Helvetica,sans-Serif" font-size="10.00">hmc5883l_set_mode</text>
</a>
</g>
</g>
<!-- Node1&#45;&gt;Node14 -->
<g id="edge13_Node000001_Node000014" class="edge">
<title>Node1&#45;&gt;Node14</title>
<g id="a_edge13_Node000001_Node000014"><a xlink:title=" ">
<path fill="none" stroke="#63b8ff" d="M53.97,-282.56C57.04,-246.61 72.19,-126.88 140.5,-67 145.12,-62.95 150.46,-59.73 156.13,-57.17"/>
<polygon fill="#63b8ff" stroke="#63b8ff" points="157.07,-60.56 165.21,-53.78 154.62,-54 157.07,-60.56"/>
</a>
</g>
</g>
<!-- Node15 -->
<g id="Node000015" class="node">
<title>Node15</title>
<g id="a_Node000015"><a xlink:href="group__hmc5883l__base__driver.html#gaf561c59e40dd6249f0fe776564dd9383" target="_top" xlink:title="start reading data">
<polygon fill="white" stroke="#666666" points="299.75,-20 140.5,-20 140.5,0 299.75,0 299.75,-20"/>
<text xml:space="preserve" text-anchor="middle" x="220.12" y="-6.5" font-family="Helvetica,sans-Serif" font-size="10.00">hmc5883l_start_continuous_read</text>
</a>
</g>
</g>
<!-- Node1&#45;&gt;Node15 -->
<g id="edge14_Node000001_Node000015" class="edge">
<title>Node1&#45;&gt;Node15</title>
<g id="a_edge14_Node000001_Node000015"><a xlink:title=" ">
<path fill="none" stroke="#63b8ff" d="M53.32,-282.54C54.17,-242.91 62.74,-100.62 140.5,-29 141.43,-28.14 142.39,-27.32 143.38,-26.54"/>
<polygon fill="#63b8ff" stroke="#63b8ff" points="145.17,-29.55 151.69,-21.21 141.39,-23.66 145.17,-29.55"/>
</a>
</g>
</g>
</g>
</svg>
