<?xml version="1.0" encoding="UTF-8" standalone="no"?>
<!DOCTYPE svg PUBLIC "-//W3C//DTD SVG 1.1//EN"
 "http://www.w3.org/Graphics/SVG/1.1/DTD/svg11.dtd">
<!-- Generated by graphviz version 13.1.0 (20250701.0955)
 -->
<!-- Title: hmc5883l_basic_deinit Pages: 1 -->
<svg width="318pt" height="66pt"
 viewBox="0.00 0.00 318.00 66.00" xmlns="http://www.w3.org/2000/svg" xmlns:xlink="http://www.w3.org/1999/xlink">
<g id="graph0" class="graph" transform="scale(1 1) rotate(0) translate(4 62)">
<title>hmc5883l_basic_deinit</title>
<!-- Node1 -->
<g id="Node000001" class="node">
<title>Node1</title>
<g id="a_Node000001"><a xlink:title="basic example deinit">
<polygon fill="#999999" stroke="#666666" points="115,-39 0,-39 0,-19 115,-19 115,-39"/>
<text xml:space="preserve" text-anchor="middle" x="57.5" y="-25.5" font-family="Helvetica,sans-Serif" font-size="10.00">hmc5883l_basic_deinit</text>
</a>
</g>
</g>
<!-- Node2 -->
<g id="Node000002" class="node">
<title>Node2</title>
<g id="a_Node000002"><a xlink:href="group__hmc5883l__base__driver.html#ga6cb64ac1ea2084ad95ae6b6840281866" target="_top" xlink:title="close the chip">
<polygon fill="white" stroke="#666666" points="273.5,-58 187,-58 187,-38 273.5,-38 273.5,-58"/>
<text xml:space="preserve" text-anchor="middle" x="230.25" y="-44.5" font-family="Helvetica,sans-Serif" font-size="10.00">hmc5883l_deinit</text>
</a>
</g>
</g>
<!-- Node1&#45;&gt;Node2 -->
<g id="edge1_Node000001_Node000002" class="edge">
<title>Node1&#45;&gt;Node2</title>
<g id="a_edge1_Node000001_Node000002"><a xlink:title=" ">
<path fill="none" stroke="#63b8ff" d="M115.36,-35.33C134.73,-37.48 156.32,-39.88 175.44,-42.01"/>
<polygon fill="#63b8ff" stroke="#63b8ff" points="174.86,-45.47 185.18,-43.1 175.63,-38.51 174.86,-45.47"/>
</a>
</g>
</g>
<!-- Node3 -->
<g id="Node000003" class="node">
<title>Node3</title>
<g id="a_Node000003"><a xlink:href="group__hmc5883l__base__driver.html#gaffd7bdf310704d622f9be8fd17b58358" target="_top" xlink:title="stop reading data">
<polygon fill="white" stroke="#666666" points="309.5,-20 151,-20 151,0 309.5,0 309.5,-20"/>
<text xml:space="preserve" text-anchor="middle" x="230.25" y="-6.5" font-family="Helvetica,sans-Serif" font-size="10.00">hmc5883l_stop_continuous_read</text>
</a>
</g>
</g>
<!-- Node1&#45;&gt;Node3 -->
<g id="edge2_Node000001_Node000003" class="edge">
<title>Node1&#45;&gt;Node3</title>
<g id="a_edge2_Node000001_Node000003"><a xlink:title=" ">
<path fill="none" stroke="#63b8ff" d="M115.36,-22.67C123.16,-21.8 131.32,-20.9 139.54,-19.98"/>
<polygon fill="#63b8ff" stroke="#63b8ff" points="139.69,-23.49 149.24,-18.9 138.92,-16.53 139.69,-23.49"/>
</a>
</g>
</g>
</g>
</svg>
